<?xml version="1.0" encoding="utf-8"?>
<!-- Generator: Adobe Illustrator 16.0.0, SVG Export Plug-In . SVG Version: 6.00 Build 0)  -->
<!DOCTYPE svg PUBLIC "-//W3C//DTD SVG 1.1//EN" "http://www.w3.org/Graphics/SVG/1.1/DTD/svg11.dtd">
<svg version="1.1" id="Calque_1" xmlns="http://www.w3.org/2000/svg" xmlns:xlink="http://www.w3.org/1999/xlink" x="0px" y="0px"
	 width="425.197px" height="90.413px" viewBox="0 0 425.197 90.413" enable-background="new 0 0 425.197 90.413"
	 xml:space="preserve">
<g>
	<g>
		<g>
			<polygon fill="#ED1C2E" points="323.973,6.591 323.973,82.763 339.574,82.763 339.574,50.799 353.082,50.799 353.082,82.763 
				368.605,82.763 368.605,6.591 353.097,6.591 353.097,36.94 339.548,36.94 339.548,6.591 			"/>
			<polygon fill="#ED1C2E" points="203.682,6.591 203.682,82.763 217.957,82.763 217.957,34.337 226.347,82.763 235.837,82.763 
				244.375,34.337 244.375,82.763 258.703,82.763 258.703,6.591 237.455,6.591 231.184,43.207 224.906,6.591 			"/>
			<polygon fill="#ED1C2E" points="113.989,6.591 123.488,40.619 132.996,6.591 148.491,6.591 131.769,57.769 131.769,82.763 
				115.208,82.763 115.208,57.769 98.478,6.591 			"/>
			<path fill="#ED1C2E" d="M181.439,6.591h-20.637l-13.56,76.172h15.418l2.593-18.131h11.661l2.589,18.131h15.526L181.439,6.591z
				 M171.088,23.805l3.858,26.994h-7.715L171.088,23.805z"/>
			<path fill="#ED1C2E" d="M301.628,6.591h-20.634l-13.558,76.172h15.427l2.583-18.131h11.659l2.598,18.131h15.511L301.628,6.591z
				 M291.294,23.805l3.839,26.994h-7.701L291.294,23.805z"/>
			<path fill="#ED1C2E" d="M411.619,6.591h-20.647l-13.544,76.172h15.416l2.594-18.131h11.656l2.604,18.131h15.5L411.619,6.591z
				 M401.278,23.805l3.845,26.994h-7.703L401.278,23.805z"/>
		</g>
		<g>
			<g>
				
					<radialGradient id="SVGID_1_" cx="-3634.5527" cy="-4058.239" r="180.3548" fx="-3641.8237" fy="-4047.8521" gradientTransform="matrix(0.2883 0 0 0.2883 1078.8555 1190.849)" gradientUnits="userSpaceOnUse">
					<stop  offset="0" style="stop-color:#FCD3C4"/>
					<stop  offset="0.0907" style="stop-color:#FBC4B2"/>
					<stop  offset="0.2737" style="stop-color:#F79E88"/>
					<stop  offset="0.5297" style="stop-color:#F26351"/>
					<stop  offset="0.7191" style="stop-color:#ED1C2E"/>
					<stop  offset="1" style="stop-color:#ED1C2E"/>
				</radialGradient>
				<path fill="url(#SVGID_1_)" d="M0,45.205C0,20.241,20.227,0,45.183,0c24.952,0,45.186,20.241,45.186,45.205
					c0,24.964-20.234,45.208-45.186,45.208C20.227,90.413,0,70.169,0,45.205z"/>
			</g>
			<path d="M45.183,89.561c23.956,0,43.372-19.436,43.372-43.398c0-23.971-19.417-43.396-43.372-43.396
				c-23.959,0-43.374,19.425-43.374,43.396C1.809,70.125,21.224,89.561,45.183,89.561z M81.985,67.415
				c-0.186,0.324-0.543,0.49-0.892,0.449l-6.042-1.337c-6.511,9.542-17.458,15.797-29.868,15.797
				c-12.412,0-23.359-6.254-29.874-15.797l-6.037,1.337c-0.347,0.048-0.704-0.121-0.892-0.441c-0.183-0.328-0.15-0.714,0.063-0.995
				l4.171-4.565c-2.299-4.745-3.586-10.075-3.586-15.699c0-19.071,14.758-34.69,33.46-36.07l1.859-5.896
				c0.137-0.326,0.463-0.554,0.836-0.554s0.68,0.221,0.831,0.54l1.859,5.911c18.707,1.38,33.45,16.999,33.45,36.07
				c0,5.624-1.284,10.955-3.577,15.699l4.173,4.558C82.134,66.703,82.168,67.094,81.985,67.415z"/>
			<path d="M81.133,66.615l-9.082-9.705c-1.273,0.546-2.773,0.509-4.057-0.235c-1.284-0.737-2.062-2.016-2.226-3.379l-0.008,0.016
				c-0.245-2.051-1.41-3.958-3.337-5.076l-3.685-2.124l16.421-9.484l-1.805-3.133L55.122,44.021l-3.17-1.831v-3.644l18.241-10.538
				l-1.811-3.125l-16.43,9.484v-4.257c0-2.224-1.063-4.198-2.713-5.436l0.018,0.007c-1.104-0.826-1.816-2.14-1.816-3.621
				c0-1.487,0.719-2.804,1.823-3.632v-0.007L45.406,4.7c-0.019-0.098-0.103-0.221-0.224-0.221c-0.128,0-0.227,0.102-0.227,0.221
				L41.1,17.43c1.101,0.828,1.814,2.145,1.814,3.632c0,1.481-0.706,2.795-1.806,3.621l0.012-0.007
				c-1.651,1.238-2.719,3.212-2.719,5.436v4.246l-16.42-9.484l-1.809,3.135l18.229,10.533v3.655l-3.167,1.832L17.012,33.496
				l-1.807,3.126l16.418,9.491l-3.705,2.138l0.026-0.014c-1.927,1.118-3.1,3.03-3.339,5.079l-0.014-0.02
				c-0.158,1.364-0.94,2.642-2.222,3.383c-1.287,0.746-2.791,0.785-4.057,0.238h-0.007l-9.073,9.698
				c-0.084,0.068-0.148,0.208-0.089,0.317c0.062,0.102,0.201,0.141,0.311,0.08l12.944-3.021c0.159-1.373,0.944-2.656,2.235-3.396
				c1.275-0.739,2.772-0.783,4.038-0.237l-0.019-0.014c1.895,0.812,4.137,0.753,6.063-0.358l3.685-2.129v18.975h3.618v-21.06
				l3.164-1.827l3.164,1.821v21.065h3.606V57.858l3.693,2.129c1.92,1.107,4.171,1.17,6.058,0.354l-0.012,0.011
				c1.271-0.54,2.76-0.495,4.046,0.244c1.28,0.739,2.064,2.017,2.231,3.396l0.005,0.003l12.937,3.018
				c0.092,0.028,0.241,0.021,0.3-0.08C81.277,66.824,81.243,66.679,81.133,66.615z M45.183,49.761l-3.164-1.823v-3.649l3.164-1.831
				l3.164,1.831v3.649L45.183,49.761z M42.019,30.111c0-1.75,1.419-3.164,3.164-3.164c1.749,0,3.164,1.414,3.164,3.164v6.347
				l-3.164,1.821l-3.164-1.827V30.111z M32.912,56.859c-1.511,0.863-3.446,0.349-4.324-1.164c-0.865-1.51-0.354-3.449,1.164-4.325
				l5.482-3.169l3.167,1.825v3.659L32.912,56.859z M61.774,55.695c-0.882,1.513-2.813,2.027-4.327,1.164l-5.495-3.174v-3.65
				l3.17-1.827l5.49,3.162C62.126,52.246,62.643,54.185,61.774,55.695z M62.424,48.237L62.424,48.237l0.014,0.011L62.424,48.237z
				 M55.662,59.992l-0.017-0.005l0,0L55.662,59.992z M34.722,59.987h-0.005l-0.015,0.009L34.722,59.987z"/>
			
				<radialGradient id="SVGID_2_" cx="-5046.8882" cy="-4477.6533" r="714.4877" gradientTransform="matrix(0.144 0 0 0.144 729.3844 648.9048)" gradientUnits="userSpaceOnUse">
				<stop  offset="0" style="stop-color:#E6E7E8"/>
				<stop  offset="0.1956" style="stop-color:#EFF0F0"/>
				<stop  offset="0.3876" style="stop-color:#FFFFFF"/>
				<stop  offset="0.4593" style="stop-color:#F9FAFA"/>
				<stop  offset="0.5271" style="stop-color:#EFF0F0"/>
				<stop  offset="0.5932" style="stop-color:#DFE0E1"/>
				<stop  offset="0.6584" style="stop-color:#C9CACC"/>
				<stop  offset="0.7223" style="stop-color:#ADAFB1"/>
				<stop  offset="0.7416" style="stop-color:#A3A5A8"/>
				<stop  offset="0.7815" style="stop-color:#B9BBBD"/>
				<stop  offset="0.8518" style="stop-color:#DDDEDF"/>
				<stop  offset="0.8876" style="stop-color:#EBEBEC"/>
				<stop  offset="0.9045" style="stop-color:#E3E4E5"/>
				<stop  offset="0.9321" style="stop-color:#CFD0D2"/>
				<stop  offset="0.9666" style="stop-color:#AEB0B3"/>
				<stop  offset="1" style="stop-color:#8C8E90"/>
			</radialGradient>
			<path fill="url(#SVGID_2_)" d="M45.183,88.606c23.956,0,43.372-19.431,43.372-43.401S69.138,1.805,45.183,1.805
				c-23.959,0-43.374,19.429-43.374,43.399S21.224,88.606,45.183,88.606z M81.985,66.464c-0.186,0.324-0.543,0.486-0.892,0.447
				l-6.042-1.337c-6.511,9.536-17.458,15.802-29.868,15.802c-12.412,0-23.359-6.267-29.874-15.799l-6.037,1.333
				c-0.347,0.04-0.704-0.117-0.892-0.447c-0.183-0.319-0.15-0.71,0.063-0.986l4.171-4.565c-2.299-4.757-3.586-10.082-3.586-15.708
				c0-19.064,14.758-34.688,33.46-36.066l1.859-5.9c0.137-0.322,0.463-0.548,0.836-0.548s0.68,0.223,0.831,0.541l1.859,5.907
				c18.707,1.378,33.45,16.999,33.45,36.066c0,5.626-1.284,10.951-3.577,15.707l4.173,4.558
				C82.134,65.75,82.168,66.138,81.985,66.464z"/>
			
				<linearGradient id="SVGID_3_" gradientUnits="userSpaceOnUse" x1="-3888.7109" y1="-4128.9766" x2="-3678.5405" y2="-3918.8062" gradientTransform="matrix(0.2883 0 0 0.2883 1135.3965 1204.6913)">
				<stop  offset="0" style="stop-color:#FFFFFF"/>
				<stop  offset="1" style="stop-color:#58595B"/>
			</linearGradient>
			<path fill="url(#SVGID_3_)" d="M45.181,88.61c23.958,0,43.374-19.435,43.374-43.401c0-23.967-19.417-43.403-43.374-43.403
				c-23.957,0-43.372,19.436-43.372,43.403C1.809,69.175,21.224,88.61,45.181,88.61z M2.027,45.214
				c0-23.805,19.351-43.181,43.154-43.181c23.794,0,43.154,19.375,43.154,43.181c0,23.81-19.36,43.188-43.154,43.188
				C21.377,88.401,2.027,69.024,2.027,45.214z"/>
			
				<linearGradient id="SVGID_4_" gradientUnits="userSpaceOnUse" x1="-3698.729" y1="-3926.9014" x2="-3857.9292" y2="-4086.1016" gradientTransform="matrix(0.2883 0 0 0.2883 1135.3965 1204.6913)">
				<stop  offset="0" style="stop-color:#FFFFFF"/>
				<stop  offset="1" style="stop-color:#58595B"/>
			</linearGradient>
			<path fill="url(#SVGID_4_)" d="M82.081,65.319l-4.071-4.455c2.343-4.907,3.533-10.176,3.533-15.656
				c0-9.246-3.469-18.057-9.766-24.816C65.534,13.71,57.114,9.646,48.041,8.937l-1.827-5.765V3.158l-0.003-0.007
				c-0.18-0.417-0.579-0.676-1.03-0.676c-0.448,0-0.86,0.264-1.035,0.684c-0.002,0.014-1.549,4.898-1.821,5.779
				c-9.076,0.709-17.5,4.773-23.74,11.458c-6.301,6.756-9.767,15.567-9.767,24.813c0,5.48,1.193,10.75,3.529,15.656L8.271,65.33
				l-0.008,0.014v0.005c-0.267,0.353-0.296,0.844-0.073,1.227c0.224,0.388,0.666,0.61,1.108,0.55c0.021,0,5.007-1.113,5.915-1.307
				c6.803,9.883,17.987,15.776,29.968,15.776c11.971,0,23.169-5.893,29.965-15.776l5.899,1.307l0.015,0.007h0.011
				c0.444,0.046,0.879-0.169,1.098-0.557C82.398,66.186,82.363,65.698,82.081,65.319z M81.978,66.464
				c-0.179,0.33-0.536,0.486-0.885,0.447l-6.042-1.333c-6.511,9.536-17.458,15.799-29.87,15.799
				c-12.416,0-23.364-6.26-29.872-15.799l-6.037,1.333c-0.347,0.05-0.704-0.117-0.892-0.445c-0.183-0.321-0.15-0.708,0.055-0.988
				l4.179-4.565c-2.299-4.746-3.586-10.082-3.586-15.704c0-19.068,14.758-34.692,33.455-36.066l1.865-5.9
				c0.137-0.326,0.456-0.552,0.834-0.552c0.368,0,0.682,0.226,0.833,0.545l1.859,5.907c18.707,1.375,33.45,16.999,33.45,36.066
				c0,5.622-1.284,10.958-3.577,15.704l4.173,4.556C82.134,65.75,82.168,66.145,81.978,66.464z"/>
			
				<linearGradient id="SVGID_5_" gradientUnits="userSpaceOnUse" x1="-4081.6809" y1="-3947.9282" x2="-4081.6809" y2="-3968.502" gradientTransform="matrix(-0.2883 0 0 0.2883 -1096.7153 1204.7157)">
				<stop  offset="0" style="stop-color:#FFFFFF"/>
				<stop  offset="1" style="stop-color:#808285"/>
			</linearGradient>
			<path fill="url(#SVGID_5_)" d="M78.01,60.893l-0.284,0.032l4.145,4.488c0,0,0.232,0.324,0.232,0.687h0.238
				c0.018-0.417-0.375-0.913-0.383-0.92C81.786,64.99,78.01,60.893,78.01,60.893z"/>
			
				<linearGradient id="SVGID_6_" gradientUnits="userSpaceOnUse" x1="-5007.542" y1="-4045.4709" x2="-4958.124" y2="-4045.4709" gradientTransform="matrix(0.144 0 0 0.144 729.3844 648.9048)">
				<stop  offset="0" style="stop-color:#BCBEC0"/>
				<stop  offset="0.0503" style="stop-color:#CACCCD"/>
				<stop  offset="0.1368" style="stop-color:#DCDDDF"/>
				<stop  offset="0.2386" style="stop-color:#EAEBEC"/>
				<stop  offset="0.3637" style="stop-color:#F4F5F5"/>
				<stop  offset="0.5374" style="stop-color:#FCFCFC"/>
				<stop  offset="1" style="stop-color:#FFFFFF"/>
			</linearGradient>
			<path fill="url(#SVGID_6_)" d="M8.197,66.576c0.223,0.388,0.659,0.61,1.108,0.55c0.019,0,5-1.113,5.914-1.307l0.094-0.242
				l-6.037,1.333c-0.348,0.05-0.708-0.117-0.891-0.447L8.197,66.576z"/>
			
				<linearGradient id="SVGID_7_" gradientUnits="userSpaceOnUse" x1="-5008.5928" y1="-4063.7783" x2="-4976.8652" y2="-4063.7783" gradientTransform="matrix(0.144 0 0 0.144 729.3844 648.9048)">
				<stop  offset="0" style="stop-color:#BCBEC0"/>
				<stop  offset="0.0563" style="stop-color:#ACAEB0"/>
				<stop  offset="0.1686" style="stop-color:#929497"/>
				<stop  offset="0.2897" style="stop-color:#7E7F82"/>
				<stop  offset="0.4206" style="stop-color:#6E6F72"/>
				<stop  offset="0.566" style="stop-color:#626365"/>
				<stop  offset="0.7375" style="stop-color:#5A5B5E"/>
				<stop  offset="1" style="stop-color:#58595B"/>
			</linearGradient>
			<path fill="url(#SVGID_7_)" d="M8.385,66.464c-0.188-0.319-0.152-0.707,0.057-0.986l4.171-4.565l-0.26-0.048L8.278,65.33
				l-0.007,0.003L8.263,65.35C8,65.702,7.972,66.193,8.197,66.576L8.385,66.464z"/>
			
				<linearGradient id="SVGID_8_" gradientUnits="userSpaceOnUse" x1="-4081.6809" y1="-3947.9282" x2="-4081.6809" y2="-3968.502" gradientTransform="matrix(-0.2883 0 0 0.2883 -1096.7153 1204.7157)">
				<stop  offset="0" style="stop-color:#FFFFFF"/>
				<stop  offset="1" style="stop-color:#A7A9AC"/>
			</linearGradient>
			<path fill="url(#SVGID_8_)" d="M78.01,60.893l-0.284,0.032l4.145,4.488c0,0,0.232,0.324,0.232,0.687h0.238
				c0.018-0.417-0.375-0.913-0.383-0.92C81.786,64.99,78.01,60.893,78.01,60.893z"/>
			
				<radialGradient id="SVGID_9_" cx="-5047.1011" cy="-4477.647" r="714.7695" gradientTransform="matrix(0.144 0 0 0.144 729.3844 648.9048)" gradientUnits="userSpaceOnUse">
				<stop  offset="0" style="stop-color:#EDEDEE"/>
				<stop  offset="0.3876" style="stop-color:#F1F2F2"/>
				<stop  offset="0.4669" style="stop-color:#EEEFEF"/>
				<stop  offset="0.5418" style="stop-color:#E4E5E6"/>
				<stop  offset="0.615" style="stop-color:#D5D6D7"/>
				<stop  offset="0.6866" style="stop-color:#BEC0C2"/>
				<stop  offset="0.7416" style="stop-color:#A9ABAE"/>
				<stop  offset="0.7815" style="stop-color:#BFC1C3"/>
				<stop  offset="0.8518" style="stop-color:#E3E4E5"/>
				<stop  offset="0.8876" style="stop-color:#F1F2F2"/>
				<stop  offset="0.9031" style="stop-color:#EAEAEB"/>
				<stop  offset="0.9282" style="stop-color:#D5D7D8"/>
				<stop  offset="0.96" style="stop-color:#B4B6B9"/>
				<stop  offset="0.9968" style="stop-color:#8A8C8E"/>
				<stop  offset="1" style="stop-color:#86888A"/>
			</radialGradient>
			<path fill="url(#SVGID_9_)" d="M81.133,65.67l-9.082-9.712c-1.273,0.55-2.773,0.513-4.057-0.235
				c-1.284-0.744-2.062-2.021-2.226-3.381l-0.008,0.018c-0.245-2.053-1.41-3.961-3.337-5.074l-3.685-2.124l16.421-9.484
				l-1.805-3.143L55.122,43.074l-3.17-1.834v-3.646L70.193,27.06l-1.811-3.137l-16.43,9.489v-4.255c0-2.224-1.063-4.191-2.713-5.436
				l0.018,0.007c-1.104-0.826-1.816-2.14-1.816-3.618c0-1.488,0.719-2.808,1.823-3.632v-0.013L45.406,3.751
				c-0.019-0.1-0.103-0.228-0.224-0.228c-0.128,0-0.227,0.102-0.227,0.228L41.1,16.479c1.101,0.824,1.814,2.144,1.814,3.632
				c0,1.478-0.706,2.792-1.806,3.618l0.012-0.007c-1.651,1.245-2.719,3.212-2.719,5.436v4.246l-16.42-9.48l-1.809,3.137
				l18.229,10.532v3.653l-3.167,1.829L17.012,32.536l-1.807,3.143l16.418,9.484l-3.705,2.14l0.026-0.016
				c-1.927,1.109-3.1,3.021-3.339,5.078l-0.014-0.018c-0.158,1.364-0.94,2.64-2.222,3.377c-1.287,0.748-2.791,0.785-4.057,0.238
				h-0.007L9.234,65.67c-0.084,0.063-0.148,0.194-0.089,0.308c0.062,0.105,0.201,0.146,0.311,0.08l12.944-3.023
				c0.159-1.369,0.944-2.647,2.235-3.392c1.275-0.737,2.772-0.78,4.038-0.241l-0.019-0.007c1.895,0.808,4.137,0.75,6.063-0.361
				l3.685-2.124v18.968h3.618V54.82l3.164-1.83l3.164,1.823v21.065h3.606V56.902l3.693,2.133c1.92,1.111,4.171,1.169,6.058,0.356
				l-0.012,0.012c1.271-0.539,2.76-0.5,4.046,0.241c1.28,0.744,2.064,2.022,2.231,3.39l0.005,0.007l12.937,3.018
				c0.092,0.032,0.241,0.025,0.3-0.08C81.277,65.864,81.243,65.73,81.133,65.67z M45.183,48.815l-3.164-1.832v-3.655l3.164-1.825
				l3.164,1.825v3.655L45.183,48.815z M42.019,29.157c0-1.745,1.419-3.171,3.164-3.171c1.749,0,3.164,1.426,3.164,3.171v6.341
				l-3.164,1.825l-3.164-1.832V29.157z M32.912,55.899c-1.511,0.872-3.446,0.356-4.324-1.161c-0.865-1.508-0.354-3.452,1.164-4.314
				l5.482-3.176l3.167,1.825v3.655L32.912,55.899z M61.774,54.739c-0.882,1.517-2.813,2.033-4.327,1.161l-5.495-3.176v-3.645
				l3.17-1.83l5.49,3.176C62.126,51.287,62.643,53.23,61.774,54.739z M62.424,47.286L62.424,47.286l0.014,0.007L62.424,47.286z
				 M55.662,59.043l-0.017-0.009l0,0L55.662,59.043z M34.722,59.035h-0.005l-0.015,0.009L34.722,59.035z"/>
			<polygon fill="#FFFFFF" points="45.181,49.063 41.794,47.104 42.019,46.98 45.181,48.803 			"/>
			<polygon fill="#FFFFFF" points="48.555,47.104 45.181,49.063 45.181,48.803 48.339,46.98 			"/>
			<polygon fill="#FFFFFF" points="48.555,47.136 48.555,43.23 48.339,43.358 48.339,47.015 			"/>
			<polygon fill="#C7C8CA" points="48.555,43.23 45.181,41.277 45.181,41.526 48.339,43.358 			"/>
			<polygon fill="#58595B" points="41.794,43.23 45.181,41.277 45.181,41.526 42.019,43.358 			"/>
			<polygon fill="#808285" points="41.794,47.136 41.794,43.23 42.019,43.358 42.019,47.015 			"/>
			
				<linearGradient id="SVGID_10_" gradientUnits="userSpaceOnUse" x1="-4870.436" y1="-4126.7515" x2="-4796.3555" y2="-4126.7515" gradientTransform="matrix(0.144 0 0 0.144 729.3844 648.9048)">
				<stop  offset="0" style="stop-color:#A7A9AC"/>
				<stop  offset="0.0275" style="stop-color:#B0B2B5"/>
				<stop  offset="0.1091" style="stop-color:#C7C9CB"/>
				<stop  offset="0.2013" style="stop-color:#DBDCDD"/>
				<stop  offset="0.3069" style="stop-color:#EAEAEB"/>
				<stop  offset="0.434" style="stop-color:#F4F4F5"/>
				<stop  offset="0.6043" style="stop-color:#FCFCFC"/>
				<stop  offset="1" style="stop-color:#FFFFFF"/>
			</linearGradient>
			<path fill="url(#SVGID_10_)" d="M27.937,53.113c-0.022,0.61,0.136,1.216,0.444,1.755c0.933,1.613,3.012,2.17,4.622,1.233
				l5.599-3.228l-0.223-0.126l-5.487,3.167c-1.511,0.872-3.441,0.354-4.321-1.165c-0.298-0.513-0.432-1.083-0.423-1.638H27.937z"/>
			
				<linearGradient id="SVGID_11_" gradientUnits="userSpaceOnUse" x1="-4870.4194" y1="-4158.6143" x2="-4819.853" y2="-4158.6143" gradientTransform="matrix(0.144 0 0 0.144 729.3844 648.9048)">
				<stop  offset="0" style="stop-color:#A7A9AC"/>
				<stop  offset="0.1695" style="stop-color:#919395"/>
				<stop  offset="0.3951" style="stop-color:#797B7D"/>
				<stop  offset="0.6135" style="stop-color:#68696B"/>
				<stop  offset="0.8195" style="stop-color:#5C5D5F"/>
				<stop  offset="1" style="stop-color:#58595B"/>
			</linearGradient>
			<path fill="url(#SVGID_11_)" d="M28.149,53.113c0.026-1.074,0.582-2.103,1.579-2.676l5.491-3.176v-0.246l-5.596,3.235
				c-0.786,0.452-1.342,1.173-1.575,2.049c-0.075,0.269-0.107,0.543-0.111,0.814H28.149z"/>
			<path fill="#FFFFFF" d="M62.435,53.07c0.015,0.614-0.144,1.21-0.457,1.754c-0.933,1.622-3.003,2.173-4.62,1.241l-5.597-3.229
				l0.224-0.125l5.483,3.164c1.518,0.874,3.449,0.354,4.326-1.159c0.296-0.516,0.436-1.088,0.421-1.645H62.435z"/>
			
				<linearGradient id="SVGID_12_" gradientUnits="userSpaceOnUse" x1="-4681.4297" y1="-4158.9639" x2="-4630.793" y2="-4158.9639" gradientTransform="matrix(0.144 0 0 0.144 729.3844 648.9409)">
				<stop  offset="0" style="stop-color:#808285"/>
				<stop  offset="0.1379" style="stop-color:#8A8C8F"/>
				<stop  offset="0.3965" style="stop-color:#A6A8AA"/>
				<stop  offset="0.7448" style="stop-color:#D5D6D8"/>
				<stop  offset="1" style="stop-color:#FFFFFF"/>
			</linearGradient>
			<path fill="url(#SVGID_12_)" d="M62.216,53.095c-0.03-1.061-0.584-2.092-1.58-2.667l-5.493-3.171v-0.252l5.599,3.236
				c0.782,0.447,1.346,1.177,1.58,2.053c0.067,0.269,0.105,0.538,0.113,0.801H62.216z"/>
			<polygon fill="#FFFFFF" points="38.603,52.875 38.603,48.965 38.38,49.088 38.38,52.748 			"/>
			<polygon fill="#C7C8CA" points="35.219,47.015 38.603,48.965 38.38,49.088 35.219,47.261 			"/>
			<polygon fill="#808285" points="51.73,75.647 51.726,56.521 51.949,56.895 51.949,75.864 			"/>
			<polygon fill="#58595B" points="48.339,75.878 51.949,75.878 51.73,75.661 48.553,75.661 			"/>
			<polygon fill="#FFFFFF" points="48.339,54.806 48.339,75.864 48.553,75.647 48.553,54.676 			"/>
			<polygon fill="#C7C8CA" points="45.174,52.729 48.553,54.676 48.339,54.806 45.174,52.983 			"/>
			<polygon fill="#58595B" points="41.794,54.705 45.181,52.748 45.181,52.996 42.012,54.824 			"/>
			<polygon fill="#808285" points="41.794,75.661 41.794,54.705 42.012,54.824 42.019,75.878 			"/>
			<polygon fill="#58595B" points="38.413,75.875 42.026,75.878 41.801,75.661 38.618,75.652 			"/>
			<polygon fill="#FFFFFF" points="38.38,56.902 38.387,75.859 38.603,75.644 38.603,56.524 			"/>
			<path fill="#58595B" d="M38.413,56.917l-3.69,2.126c-1.925,1.111-4.163,1.169-6.061,0.359l0.011,0.005
				c-1.266-0.538-2.762-0.499-4.038,0.239c-1.292,0.741-2.076,2.022-2.235,3.394l-0.19-0.182c0.213-1.43,1.046-2.671,2.315-3.396
				c1.302-0.758,2.846-0.845,4.232-0.254l-0.007-0.012c1.915,0.826,4.057,0.699,5.863-0.338l4.006-2.316L38.413,56.917z"/>
			<path fill="#58595B" d="M9.119,65.955c0.062,0.105,0.199,0.146,0.333,0.102l12.948-3.021l-0.19-0.176L9.367,65.811L9.119,65.955z
				"/>
			<path fill="#FFFFFF" d="M18.292,55.944l-9.093,9.699c-0.077,0.068-0.141,0.201-0.08,0.312l0.248-0.144l8.979-9.614L18.292,55.944
				z"/>
			<path fill="#FFFFFF" d="M31.605,45.151l-3.69,2.127c-1.92,1.115-3.091,3.021-3.337,5.07v-0.02
				c-0.167,1.369-0.945,2.642-2.233,3.385c-1.287,0.739-2.787,0.776-4.052,0.229l0.055,0.253c1.342,0.53,2.87,0.424,4.104-0.297
				c1.287-0.737,2.165-2.063,2.344-3.54v0.018c0.246-2.078,1.423-3.867,3.229-4.909l4.017-2.318H31.605z"/>
			<polygon fill="#58595B" points="55.137,47.001 51.754,48.954 51.96,49.083 55.137,47.249 			"/>
			<polygon fill="#808285" points="51.761,52.832 51.761,48.935 51.978,49.058 51.978,52.706 			"/>
			<polygon fill="#FFFFFF" points="68.299,24.216 51.73,33.778 51.949,33.403 68.377,23.919 			"/>
			<polygon fill="#C7C8CA" points="70.186,27.049 68.377,23.919 68.299,24.216 69.882,26.969 			"/>
			<polygon fill="#58595B" points="51.96,37.599 70.193,27.068 69.89,26.986 51.746,37.467 			"/>
			<polygon fill="#808285" points="51.746,41.368 51.746,37.467 51.96,37.599 51.96,41.245 			"/>
			<polygon fill="#FFFFFF" points="55.119,43.307 51.73,41.357 51.949,41.233 55.119,43.06 			"/>
			<polygon fill="#FFFFFF" points="73.264,32.832 55.119,43.307 55.119,43.06 73.355,32.529 			"/>
			<polygon fill="#C7C8CA" points="75.153,35.662 73.355,32.529 73.264,32.832 74.856,35.585 			"/>
			<polygon fill="#58595B" points="58.743,45.162 75.167,35.682 74.869,35.6 58.313,45.162 			"/>
			
				<linearGradient id="SVGID_13_" gradientUnits="userSpaceOnUse" x1="-4659.4844" y1="-4153.1777" x2="-4564.0586" y2="-4153.1777" gradientTransform="matrix(0.144 0 0 0.144 729.3844 648.9048)">
				<stop  offset="0" style="stop-color:#FFFFFF"/>
				<stop  offset="0.2033" style="stop-color:#FBFBFC"/>
				<stop  offset="0.3081" style="stop-color:#F3F4F4"/>
				<stop  offset="0.3904" style="stop-color:#E8E9EA"/>
				<stop  offset="0.4606" style="stop-color:#D8DADB"/>
				<stop  offset="0.5169" style="stop-color:#C7C8CA"/>
				<stop  offset="0.5243" style="stop-color:#CBCCCE"/>
				<stop  offset="0.5661" style="stop-color:#DDDEDF"/>
				<stop  offset="0.6154" style="stop-color:#EBEBEC"/>
				<stop  offset="0.6765" style="stop-color:#F5F5F5"/>
				<stop  offset="0.7621" style="stop-color:#FCFCFC"/>
				<stop  offset="1" style="stop-color:#FFFFFF"/>
			</linearGradient>
			<path fill="url(#SVGID_13_)" d="M58.734,45.151l3.69,2.127c1.913,1.116,3.082,3.021,3.337,5.07v-0.02
				c0.165,1.369,0.945,2.647,2.226,3.388c1.288,0.742,2.783,0.782,4.056,0.233L71.988,56.2c-1.353,0.545-2.844,0.435-4.11-0.292
				c-1.298-0.755-2.154-2.047-2.336-3.544v0.014c-0.241-2.078-1.423-3.863-3.231-4.909l-4.007-2.318H58.734z"/>
			<path fill="#C7C8CA" d="M81.21,65.967c0.061-0.107,0.029-0.244-0.084-0.308l-9.083-9.708L71.988,56.2l8.97,9.626L81.21,65.967z"
				/>
			<path fill="#808285" d="M67.957,63.047l12.946,3.021c0.091,0.036,0.245,0.025,0.307-0.077l-0.252-0.148l-12.802-2.973
				L67.957,63.047z"/>
			
				<linearGradient id="SVGID_14_" gradientUnits="userSpaceOnUse" x1="-4705.1479" y1="-4091.2021" x2="-4591.0737" y2="-4091.2021" gradientTransform="matrix(0.144 0 0 0.144 729.3844 648.9048)">
				<stop  offset="0.0112" style="stop-color:#C7C8CA"/>
				<stop  offset="0.1172" style="stop-color:#C4C6C8"/>
				<stop  offset="0.1997" style="stop-color:#BCBEC0"/>
				<stop  offset="0.2744" style="stop-color:#AEB0B3"/>
				<stop  offset="0.3444" style="stop-color:#9C9EA0"/>
				<stop  offset="0.4111" style="stop-color:#858789"/>
				<stop  offset="0.4746" style="stop-color:#696B6D"/>
				<stop  offset="0.5056" style="stop-color:#58595B"/>
				<stop  offset="0.5603" style="stop-color:#6F7073"/>
				<stop  offset="0.7186" style="stop-color:#A7AAAC"/>
				<stop  offset="0.8498" style="stop-color:#D5D6D8"/>
				<stop  offset="0.9472" style="stop-color:#F1F2F2"/>
				<stop  offset="1" style="stop-color:#FFFFFF"/>
			</linearGradient>
			<path fill="url(#SVGID_14_)" d="M51.949,56.895l3.689,2.131c1.922,1.115,4.164,1.168,6.065,0.36l-0.015,0.011
				c1.268-0.542,2.763-0.504,4.047,0.238c1.277,0.741,2.059,2.022,2.222,3.388l0.199-0.164c-0.214-1.428-1.072-2.69-2.315-3.418
				c-1.292-0.735-2.874-0.83-4.239-0.244l0.012-0.018c-1.92,0.826-4.062,0.702-5.865-0.345l-4.019-2.313L51.949,56.895z"/>
			<g>
				<polygon fill="#FFFFFF" points="48.57,29.141 48.57,35.61 48.354,35.48 48.354,29.141 				"/>
				
					<linearGradient id="SVGID_15_" gradientUnits="userSpaceOnUse" x1="-4774.5259" y1="-4315.6787" x2="-4726.0957" y2="-4315.6787" gradientTransform="matrix(0.144 0 0 0.144 729.4108 648.9111)">
					<stop  offset="0" style="stop-color:#808285"/>
					<stop  offset="1" style="stop-color:#FFFFFF"/>
				</linearGradient>
				<path fill="url(#SVGID_15_)" d="M41.789,29.144c0-1.864,1.51-3.382,3.385-3.382c0.894,0,1.75,0.353,2.383,0.992
					c0.637,0.639,0.996,1.488,0.996,2.387h-0.213c0-1.741-1.423-3.158-3.166-3.158c-1.754,0-3.17,1.417-3.17,3.162H41.789z"/>
				<polygon fill="#808285" points="41.801,29.141 41.801,35.607 42.026,35.48 42.026,29.141 				"/>
				<polygon fill="#FFFFFF" points="41.801,35.607 45.193,37.555 45.193,37.305 42.026,35.48 				"/>
				<polygon fill="#FFFFFF" points="48.57,35.61 45.193,37.555 45.193,37.305 48.354,35.48 				"/>
				<polygon fill="#C7C8CA" points="15.516,35.587 32.084,45.151 31.649,45.151 15.219,35.671 				"/>
				<polygon fill="#FFFFFF" points="17.026,32.536 15.219,35.671 15.516,35.587 17.103,32.835 				"/>
				<polygon fill="#FFFFFF" points="35.267,43.06 17.026,32.536 17.103,32.835 35.267,43.314 				"/>
				<polygon fill="#FFFFFF" points="38.646,41.365 35.267,43.314 35.267,43.06 38.429,41.24 				"/>
				<polygon fill="#FFFFFF" points="38.646,37.457 38.646,41.365 38.429,41.24 38.429,37.58 				"/>
				<polygon fill="#C7C8CA" points="20.49,26.976 38.646,37.457 38.429,37.58 20.193,27.06 				"/>
				<polygon fill="#FFFFFF" points="22.008,23.922 20.193,27.06 20.49,26.976 22.082,24.218 				"/>
				<polygon fill="#FFFFFF" points="38.429,33.403 22.008,23.922 22.082,24.218 38.646,33.775 				"/>
				<path fill="#FFFFFF" d="M38.429,33.403v-4.255c0.004-2.224,1.07-4.188,2.723-5.427l-0.014,0.003
					c1.097-0.828,1.814-2.136,1.814-3.614c0-1.488-0.717-2.808-1.82-3.632l0.246-0.075c1.14,0.903,1.794,2.242,1.794,3.707
					c-0.003,1.499-0.697,2.888-1.895,3.789l0.011-0.009c-1.677,1.255-2.637,3.169-2.637,5.257l-0.004,4.627L38.429,33.403z"/>
				<path fill="#FFFFFF" d="M45.219,3.534c-0.121,0-0.23,0.096-0.23,0.225l-3.857,12.721l0.246-0.075L45.219,3.82V3.534z"/>
				<path fill="#FFFFFF" d="M49.299,16.479L45.446,3.758c-0.021-0.104-0.108-0.225-0.227-0.225V3.82l3.828,12.575L49.299,16.479z"/>
				
					<linearGradient id="SVGID_16_" gradientUnits="userSpaceOnUse" x1="-3766.2827" y1="-4122.501" x2="-3766.2827" y2="-4061.8296" gradientTransform="matrix(0.2883 0 0 0.2883 1135.4453 1204.6913)">
					<stop  offset="0" style="stop-color:#58595B"/>
					<stop  offset="0.0483" style="stop-color:#5F6063"/>
					<stop  offset="0.1256" style="stop-color:#727476"/>
					<stop  offset="0.2221" style="stop-color:#8E9093"/>
					<stop  offset="0.3342" style="stop-color:#B8BABC"/>
					<stop  offset="0.458" style="stop-color:#F0F0F1"/>
					<stop  offset="0.4831" style="stop-color:#FFFFFF"/>
					<stop  offset="0.6768" style="stop-color:#CED0D2"/>
					<stop  offset="1" style="stop-color:#808285"/>
				</linearGradient>
				<path fill="url(#SVGID_16_)" d="M51.992,33.403v-4.255c0-2.224-1.072-4.188-2.72-5.429l0.014,0.005
					c-1.097-0.828-1.814-2.14-1.814-3.625c0.003-1.478,0.721-2.797,1.827-3.621l-0.252-0.084c-1.121,0.897-1.787,2.27-1.787,3.705
					c0,1.492,0.708,2.911,1.895,3.799l-0.016-0.009c1.677,1.255,2.635,3.169,2.635,5.257v4.63L51.992,33.403z"/>
			</g>
		</g>
	</g>
</g>
</svg>
