<?xml version="1.0" encoding="utf-8"?>
<!-- Generator: Adobe Illustrator 17.0.0, SVG Export Plug-In . SVG Version: 6.00 Build 0)  -->
<!DOCTYPE svg PUBLIC "-//W3C//DTD SVG 1.1//EN" "http://www.w3.org/Graphics/SVG/1.1/DTD/svg11.dtd">
<svg version="1.1" id="Calque_1" xmlns="http://www.w3.org/2000/svg" xmlns:xlink="http://www.w3.org/1999/xlink" x="0px" y="0px"
	 width="177.877px" height="84.956px" viewBox="0 0 177.877 84.956" enable-background="new 0 0 177.877 84.956"
	 xml:space="preserve">
<g>
	<g>
		
			<linearGradient id="SVGID_1_" gradientUnits="userSpaceOnUse" x1="535.6308" y1="453.3325" x2="535.6308" y2="508.4325" gradientTransform="matrix(1 0 0 1 -425.6113 -445.5127)">
			<stop  offset="0" style="stop-color:#DFDEDD"/>
			<stop  offset="0" style="stop-color:#E2E3E4"/>
			<stop  offset="0.0386" style="stop-color:#D3D4D5"/>
			<stop  offset="0.1125" style="stop-color:#ADADAF"/>
			<stop  offset="0.2135" style="stop-color:#6F6F71"/>
			<stop  offset="0.264" style="stop-color:#4D4D4F"/>
			<stop  offset="0.2961" style="stop-color:#646466"/>
			<stop  offset="0.3935" style="stop-color:#A6A6A7"/>
			<stop  offset="0.4754" style="stop-color:#D6D6D7"/>
			<stop  offset="0.5377" style="stop-color:#F4F4F4"/>
			<stop  offset="0.573" style="stop-color:#FFFFFF"/>
			<stop  offset="0.6176" style="stop-color:#E2E2E3"/>
			<stop  offset="0.7243" style="stop-color:#A3A3A4"/>
			<stop  offset="0.8144" style="stop-color:#747476"/>
			<stop  offset="0.8834" style="stop-color:#58585A"/>
			<stop  offset="0.9231" style="stop-color:#4D4D4F"/>
			<stop  offset="1" style="stop-color:#171314"/>
		</linearGradient>
		<path fill="url(#SVGID_1_)" d="M68.708,5.806h37.515l11.157,15.544L131.39,7.772h33.473c0,0-13.291,1.382-17.803,5.511
			c-4.512,4.129-19.467,18.301-19.467,18.301l23.739,28.913c0,0,4.747,1.972,20.896,2.561l-38.229,0.79L116.43,42.006L94.59,63.058
			H47.811c0,0,22.565-1.179,26.357-2.95c3.797-1.771,33.243-29.513,33.243-29.513L91.028,10.526
			C91.028,10.526,85.092,6.596,68.708,5.806z"/>
		
			<linearGradient id="SVGID_2_" gradientUnits="userSpaceOnUse" x1="473.3968" y1="480.3412" x2="597.8598" y2="480.3412" gradientTransform="matrix(1 0 0 1 -425.6113 -445.5127)">
			<stop  offset="0" style="stop-color:#DFDEDD"/>
			<stop  offset="0" style="stop-color:#D6D5D4"/>
			<stop  offset="0.0388" style="stop-color:#C7C7C6"/>
			<stop  offset="0.1132" style="stop-color:#A0A2A2"/>
			<stop  offset="0.2147" style="stop-color:#626868"/>
			<stop  offset="0.264" style="stop-color:#414949"/>
			<stop  offset="0.3099" style="stop-color:#646B6B"/>
			<stop  offset="0.4024" style="stop-color:#A6AAAA"/>
			<stop  offset="0.4803" style="stop-color:#D6D8D8"/>
			<stop  offset="0.5395" style="stop-color:#F4F4F4"/>
			<stop  offset="0.573" style="stop-color:#FFFFFF"/>
			<stop  offset="0.6039" style="stop-color:#E7E7E7"/>
			<stop  offset="0.7163" style="stop-color:#969696"/>
			<stop  offset="0.8161" style="stop-color:#565656"/>
			<stop  offset="0.8995" style="stop-color:#272727"/>
			<stop  offset="0.9634" style="stop-color:#0B0B0B"/>
			<stop  offset="1" style="stop-color:#000000"/>
		</linearGradient>
		<path fill="url(#SVGID_2_)" d="M116.383,42.77L94.799,63.575H47.817l-0.031-1.035c0.005,0,3.166-0.167,7.323-0.467l0,0
			c4.163-0.297,9.321-0.735,13.27-1.273l0,0c2.624-0.344,4.757-0.772,5.571-1.164l0,0c0.584-0.258,2.233-1.512,4.366-3.307l0,0
			c2.144-1.8,4.83-4.163,7.699-6.726l0,0c5.722-5.133,12.154-11.087,16.384-15.025l0,0c2.097-1.956,3.641-3.409,4.303-4.03l0,0
			L90.683,10.923c-0.047-0.026-0.104-0.063-0.198-0.115l0,0c-0.183-0.099-0.464-0.255-0.861-0.433l0,0
			c-0.793-0.375-2.019-0.881-3.766-1.419l0,0c-3.49-1.064-9.024-2.243-17.172-2.629l0,0l0.021-0.522l-0.021,0.522l0.021-1.035
			h37.781l10.959,15.27l13.729-13.306h33.686l0.052,1.033c0,0-3.291,0.344-7.151,1.195l0,0c-3.849,0.847-8.268,2.248-10.359,4.181
			l0,0c-2.248,2.063-7.115,6.638-11.418,10.696l0,0c-3.521,3.326-6.667,6.301-7.694,7.269l0,0l23.348,28.436
			c0.026,0.008,0.063,0.016,0.094,0.032l0,0c0.151,0.052,0.391,0.125,0.73,0.219l0,0c0.678,0.193,1.763,0.454,3.349,0.73l0,0
			c3.177,0.563,8.382,1.2,16.436,1.494l0,0l-0.01,1.035l-38.485,0.79L116.383,42.77L116.383,42.77z M134.243,63.319l26.457-0.542
			c-7.1-0.783-9.504-1.774-9.572-1.8l0,0l-0.115-0.05l-24.125-29.39l0.344-0.329c0,0,14.955-14.17,19.472-18.306l0,0
			c2.425-2.199,6.906-3.544,10.834-4.426l0,0c0.287-0.068,0.569-0.125,0.85-0.185l0,0h-26.79l-14.292,13.846l-11.35-15.81H78.947
			c8.831,1.445,12.3,3.727,12.362,3.771l0,0l0.073,0.042l16.734,20.497l-0.35,0.334c-0.005,0-16.561,15.609-26.462,24.169l0,0
			c-3.323,2.864-5.816,4.909-6.917,5.438l0,0c-1.085,0.498-3.197,0.884-5.868,1.255l0,0c-1.94,0.258-4.147,0.498-6.39,0.707l0,0
			h32.251l22.096-21.3L134.243,63.319L134.243,63.319z"/>
		<path fill="#8E8F92" d="M117.375,41.252l-0.835-1.033l-0.944,0.921l-21.49,20.711H74.419l-0.089-0.5
			c0.131-0.055,0.245-0.097,0.35-0.149l0,0c1.852-0.851,9.556-7.605,17.078-14.454l0,0c7.537-6.859,14.96-13.844,16.478-15.273l0,0
			l0.819-0.772l-0.71-0.876L91.967,9.765l-0.12-0.143l-0.151-0.104c-0.099-0.063-1.497-0.968-4.653-1.995l0,0l0.083-0.506h18.471
			l10.802,15.038l0.814,1.137l1.007-0.975l13.656-13.231h19.555l0.089,0.498c-2.113,0.782-4.016,1.747-5.279,2.911l0,0
			c-4.465,4.089-19.336,18.17-19.483,18.311l0,0l-0.819,0.775l0.715,0.871l23.744,28.919l0.193,0.229l0.277,0.12
			c0.026,0.008,0.167,0.068,0.443,0.157l0,0l-0.068,0.506l-16.546,0.344h-0.13L117.375,41.252L117.375,41.252z M134.687,62.362
			l0.198-0.162L134.687,62.362L134.687,62.362z M117.776,40.926l17.031,21.178l15.346-0.318l-0.156-0.188l-23.739-28.918
			l-1.023-1.241l1.168-1.106c0.146-0.143,15.023-14.224,19.488-18.324l0,0c1.08-0.983,2.546-1.81,4.183-2.504l0,0h-17.991
			l-13.505,13.087l-1.44,1.387l-1.163-1.622L105.341,7.532H88.649c2.196,0.824,3.213,1.476,3.333,1.555l0,0l0.219,0.143l0.021,0.034
			l0.141,0.175l16.384,20.064l1.017,1.244l-1.174,1.103c-1.512,1.435-8.946,8.424-16.483,15.281l0,0
			c-6.959,6.317-13.943,12.495-16.614,14.198l0,0h18.403l21.339-20.565l1.356-1.309L117.776,40.926L117.776,40.926z"/>
	</g>
	<g>
		<g>
			<g>
				<g>
					<path fill="#171314" d="M171.518,2.029c0.37-0.078,0.897-0.12,1.398-0.12c0.772,0,1.273,0.146,1.628,0.469
						c0.281,0.25,0.438,0.639,0.438,1.077c0,0.754-0.469,1.252-1.059,1.458v0.021c0.433,0.151,0.694,0.558,0.829,1.153
						c0.183,0.795,0.313,1.346,0.428,1.565h-0.746C174.34,7.48,174.215,7,174.059,6.291c-0.172-0.788-0.465-1.08-1.127-1.106h-0.684
						v2.467h-0.73V2.029z M172.249,4.627h0.741c0.778,0,1.268-0.433,1.268-1.085c0-0.735-0.522-1.056-1.294-1.064
						c-0.349,0-0.6,0.031-0.715,0.073V4.627z"/>
				</g>
				<g>
					<path fill="#171314" d="M168.284,4.867c0-2.689,2.149-4.867,4.799-4.867l0,0c2.645,0,4.794,2.178,4.794,4.867l0,0
						c0,2.684-2.149,4.864-4.794,4.864l0,0C170.433,9.731,168.284,7.55,168.284,4.867L168.284,4.867z M168.629,4.867
						c0.011,2.488,1.998,4.507,4.455,4.507l0,0c2.457,0,4.444-2.019,4.449-4.507l0,0c-0.005-2.488-1.992-4.509-4.449-4.509l0,0
						C170.626,0.357,168.639,2.379,168.629,4.867L168.629,4.867z"/>
				</g>
			</g>
		</g>
		<path fill="#A1957A" d="M165.577,39.666c0,0-1.737,0.313-2.728-0.133c-0.976-0.438,0-0.952,0-0.952s0.157,0.383,0.079-0.569
			c-0.079-0.957,0.913-1.213,0.913-1.213l8.784-2.483l-14.162,2.102l7.501-12.983l-5.154-1.779
			c-2.874,2.926-33.258,22.205-33.258,22.205c0.756,0.446,3.182,3.562,3.182,3.562c1.893-1.21,14.699-2.48,14.699-2.48
			l-6.291,12.853l2.123-1.529c4.694-0.383,5.905-1.781,5.905-1.781l8.638-12.853c0,0,8.56-0.506,9.619-1.08
			C166.495,39.979,165.577,39.666,165.577,39.666z M150.262,38.55l-7.882,1.395l13.181-9.54L150.262,38.55z"/>
		<path fill="#A1957A" d="M78.566,50.127c0,0,14.506-8.541,13.421-24.177c0,0-2.165-7.819-12.336,0.183
			C69.48,34.135,68.833,43.221,69.047,45.219c0.214,2-13.64-6.176-13.64-6.176s9.744-2.003,11.908-4.186
			c2.165-2.183,5.628-5.819-0.652-9.997c0,0-4.543-3.093-11.256-2.186c0,0-9.306-5.998-55.406,0.545c0,0,43.075-4.363,49.783,2.371
			c0,0,3.458,2.175-5.414,5.266l-13.854,4.368L35.71,24.86l-6.708,1.627L14.068,51.765h5.19l7.579-12.545
			c0,0,20.781-4.546,25.324-8.364c4.549-3.821,3.245-5.454,3.245-6.367c0,0,1.732-0.725,4.976,1.278c0,0-3.458,1.267-4.324,3.641
			c-0.866,2.358-4.543,8.904-4.543,8.904l-5.628,1.818l1.732,1.635l-5.195,10.912c0,0,4.11-0.733,5.842-4.366
			c1.732-3.638,3.25-5.091,3.25-5.091L94.82,58.499L78.566,50.127z M60.596,27.262c0,0,4.392,1.734,3.432,6.236
			c0,0-1.153,2.204-8.732,4.029L60.596,27.262z M76.485,33.754c0,0,4.846-8.21,9.848-8.654c0,0,4.773-0.574-0.913,12.279l1.742-2.29
			c0,0-4.089,11.053-10.531,12.153C76.631,47.243,69.511,47.243,76.485,33.754z"/>
	</g>
	<g>
		<path fill="#A1957A" d="M20.124,82.199c-0.115,0.305-0.282,0.72-0.48,1.26c-0.203,0.537-0.349,0.957-0.444,1.252
			c-0.991,0.164-1.857,0.245-2.603,0.245c-0.725,0-1.372-0.104-1.94-0.31c-0.574-0.206-1.059-0.547-1.471-1.02
			c-0.407-0.475-0.647-1.027-0.72-1.669c-0.073-0.639-0.016-1.356,0.167-2.149c0.219-0.929,0.558-1.763,1.033-2.499
			c0.469-0.741,1.043-1.359,1.721-1.852c0.678-0.493,1.377-0.848,2.097-1.059c0.72-0.214,1.44-0.318,2.154-0.318
			c0.657,0,1.45,0.096,2.373,0.292l-0.136,0.647c-0.063,0.279-0.12,0.587-0.182,0.923l-0.157,0.879
			c-0.485-0.143-0.881-0.242-1.189-0.295c-0.313-0.049-0.605-0.073-0.881-0.073c-0.6,0-1.174,0.138-1.716,0.412
			c-0.542,0.277-1.012,0.678-1.414,1.205c-0.402,0.527-0.673,1.111-0.819,1.753c-0.136,0.582-0.136,1.083,0,1.503
			c0.13,0.412,0.365,0.735,0.704,0.965c0.344,0.227,0.803,0.341,1.377,0.341c0.318,0,0.668-0.034,1.054-0.089
			C19.039,82.483,19.529,82.371,20.124,82.199z"/>
		<path fill="#A1957A" d="M26.561,76.719c0.553,0,1.059,0.099,1.523,0.292c0.464,0.193,0.829,0.475,1.09,0.84
			c0.271,0.365,0.428,0.793,0.48,1.283c0.052,0.49,0.015,1.014-0.115,1.578c-0.13,0.545-0.323,1.067-0.589,1.562
			c-0.261,0.491-0.621,0.957-1.075,1.388c-0.464,0.433-0.986,0.756-1.586,0.975c-0.6,0.211-1.205,0.318-1.82,0.318
			c-0.563,0-1.08-0.094-1.56-0.281c-0.474-0.19-0.845-0.465-1.106-0.83c-0.266-0.365-0.423-0.798-0.485-1.306
			c-0.057-0.503-0.021-1.041,0.11-1.593c0.13-0.561,0.339-1.09,0.626-1.599c0.292-0.503,0.667-0.963,1.132-1.364
			c0.464-0.407,0.996-0.717,1.591-0.933C25.377,76.829,25.971,76.719,26.561,76.719z M25.987,78.978
			c-0.282,0-0.558,0.083-0.819,0.253c-0.261,0.17-0.485,0.415-0.668,0.741c-0.193,0.321-0.334,0.678-0.417,1.062
			c-0.136,0.563-0.115,0.996,0.063,1.293c0.177,0.3,0.444,0.449,0.814,0.449c0.282,0,0.553-0.083,0.814-0.256
			c0.261-0.172,0.485-0.425,0.683-0.759c0.188-0.337,0.329-0.697,0.417-1.077c0.073-0.318,0.094-0.605,0.063-0.861
			c-0.026-0.255-0.125-0.459-0.292-0.615C26.477,79.051,26.258,78.978,25.987,78.978z"/>
		<path fill="#A1957A" d="M29.519,84.755c0.396-1.158,0.798-2.444,1.189-3.847c0.397-1.403,0.746-2.733,1.054-3.988
			c0.527,0.008,0.986,0.018,1.372,0.018c0.449,0,0.887-0.01,1.299-0.018l-0.308,1.043c0.193-0.19,0.35-0.337,0.485-0.449
			c0.13-0.11,0.287-0.219,0.475-0.324c0.177-0.102,0.37-0.19,0.558-0.253c0.198-0.071,0.402-0.122,0.621-0.162
			c0.219-0.037,0.449-0.058,0.678-0.058c0.318,0,0.621,0.042,0.908,0.12c0.287,0.078,0.516,0.193,0.683,0.339
			c0.172,0.146,0.302,0.326,0.386,0.543c0.089,0.219,0.125,0.454,0.115,0.704c-0.015,0.25-0.057,0.508-0.12,0.772
			c-0.042,0.198-0.162,0.616-0.344,1.262l-0.762,2.78c-0.151,0.545-0.276,1.054-0.386,1.516c-0.449-0.008-0.866-0.013-1.257-0.013
			c-0.527,0-1.007,0.005-1.45,0.013c0.157-0.462,0.355-1.156,0.616-2.074c0.256-0.918,0.428-1.565,0.516-1.94
			c0.136-0.576,0.13-0.981-0.005-1.205c-0.146-0.23-0.36-0.344-0.657-0.344c-0.256,0-0.522,0.099-0.798,0.292
			c-0.271,0.193-0.511,0.478-0.725,0.848c-0.209,0.368-0.443,0.983-0.689,1.831c-0.25,0.848-0.49,1.713-0.709,2.592
			c-0.444-0.008-0.871-0.013-1.299-0.013C30.525,84.742,30.04,84.747,29.519,84.755z"/>
		<path fill="#A1957A" d="M45.11,82.308c-0.068,0.206-0.209,0.579-0.423,1.124l-0.459,1.236c-0.746,0.193-1.45,0.287-2.112,0.287
			c-0.485,0-0.897-0.057-1.236-0.169c-0.402-0.133-0.73-0.368-0.996-0.707c-0.266-0.347-0.428-0.756-0.48-1.231
			c-0.057-0.558-0.005-1.184,0.151-1.875c0.151-0.634,0.386-1.247,0.71-1.833c0.318-0.59,0.709-1.075,1.163-1.455
			c0.454-0.381,0.918-0.636,1.393-0.767c0.475-0.131,0.981-0.199,1.518-0.199c0.313,0,0.631,0.021,0.939,0.058
			c0.313,0.039,0.689,0.122,1.127,0.25l-0.026,0.177c-0.031,0.185-0.063,0.37-0.104,0.563c-0.037,0.19-0.089,0.493-0.167,0.907
			l-0.115,0.689c-0.579-0.258-1.106-0.386-1.601-0.386c-0.35,0-0.678,0.078-0.976,0.235c-0.297,0.154-0.548,0.381-0.741,0.673
			c-0.198,0.297-0.344,0.636-0.428,1.028c-0.094,0.391-0.115,0.72-0.063,0.988c0.052,0.266,0.183,0.465,0.402,0.597
			c0.219,0.136,0.48,0.201,0.777,0.201c0.151,0,0.329-0.018,0.548-0.055c0.214-0.037,0.402-0.078,0.569-0.117
			C44.64,82.483,44.849,82.413,45.11,82.308z"/>
		<path fill="#A1957A" d="M52.908,82.439c-0.13,0.308-0.417,1.048-0.855,2.23c-0.542,0.115-0.996,0.193-1.356,0.23
			c-0.36,0.039-0.715,0.057-1.08,0.057c-0.527,0-1.002-0.042-1.429-0.125c-0.422-0.084-0.772-0.235-1.043-0.448
			c-0.271-0.214-0.48-0.48-0.621-0.801c-0.146-0.321-0.224-0.702-0.23-1.14c-0.015-0.438,0.032-0.892,0.141-1.356
			c0.151-0.657,0.417-1.293,0.788-1.925c0.375-0.626,0.777-1.117,1.215-1.466c0.443-0.352,0.913-0.605,1.414-0.751
			c0.501-0.148,0.991-0.224,1.487-0.224c0.506,0,0.97,0.068,1.403,0.206c0.423,0.133,0.756,0.368,1.002,0.707
			c0.24,0.339,0.381,0.722,0.417,1.148c0.036,0.423-0.005,0.882-0.12,1.372c-0.063,0.292-0.167,0.615-0.308,0.975l-4.674,0.008
			c-0.026,0.08-0.047,0.154-0.063,0.221c-0.125,0.548-0.052,0.955,0.23,1.21c0.282,0.266,0.667,0.394,1.163,0.394
			c0.292,0,0.637-0.042,1.033-0.117C51.818,82.762,52.308,82.63,52.908,82.439z M49.382,79.959h2.201
			c0.026-0.086,0.042-0.161,0.058-0.219c0.063-0.268,0.073-0.496,0.036-0.688c-0.036-0.188-0.125-0.324-0.261-0.412
			c-0.131-0.089-0.292-0.13-0.485-0.13c-0.136,0-0.266,0.026-0.402,0.073c-0.136,0.049-0.266,0.12-0.386,0.216
			c-0.125,0.091-0.229,0.203-0.329,0.326c-0.094,0.123-0.172,0.24-0.229,0.355C49.528,79.596,49.46,79.755,49.382,79.959z"/>
		<path fill="#A1957A" d="M53.826,84.611c0.037-0.224,0.073-0.462,0.11-0.709c0.042-0.25,0.094-0.59,0.151-1.027l0.078-0.553
			c0.381,0.198,0.72,0.342,1.007,0.435c0.292,0.094,0.569,0.144,0.824,0.144c0.219,0,0.402-0.026,0.548-0.068
			c0.146-0.047,0.261-0.115,0.344-0.201c0.078-0.089,0.136-0.175,0.151-0.269c0.021-0.083,0.015-0.164-0.011-0.245
			c-0.026-0.076-0.104-0.185-0.245-0.323c-0.287-0.305-0.542-0.587-0.761-0.84c-0.219-0.245-0.376-0.469-0.469-0.662
			c-0.094-0.199-0.151-0.407-0.172-0.631c-0.021-0.227-0.005-0.459,0.052-0.699c0.099-0.428,0.297-0.822,0.595-1.189
			c0.297-0.371,0.667-0.636,1.116-0.804c0.454-0.167,0.97-0.25,1.565-0.25c0.616,0,1.382,0.094,2.3,0.277l-0.391,2.152
			c-0.485-0.248-0.97-0.368-1.471-0.368c-0.349,0-0.615,0.039-0.793,0.123c-0.178,0.083-0.282,0.211-0.324,0.383
			c-0.01,0.052-0.015,0.11-0.01,0.162c0.005,0.047,0.026,0.104,0.057,0.159c0.037,0.057,0.084,0.112,0.136,0.172
			c0.057,0.06,0.188,0.196,0.407,0.415c0.219,0.211,0.386,0.389,0.501,0.527c0.198,0.225,0.344,0.433,0.428,0.626
			c0.084,0.188,0.136,0.396,0.157,0.613c0.016,0.217,0,0.446-0.057,0.686c-0.083,0.365-0.24,0.699-0.459,1.001
			c-0.229,0.308-0.516,0.563-0.876,0.764c-0.355,0.203-0.72,0.347-1.101,0.43c-0.375,0.079-0.756,0.115-1.142,0.115
			c-0.256,0-0.574-0.023-0.949-0.078C54.744,84.828,54.311,84.737,53.826,84.611z"/>
		<path fill="#A1957A" d="M60.414,84.611c0.037-0.224,0.073-0.462,0.115-0.709c0.042-0.25,0.089-0.59,0.151-1.027l0.073-0.553
			c0.386,0.198,0.72,0.342,1.012,0.435c0.292,0.094,0.563,0.144,0.824,0.144c0.219,0,0.396-0.026,0.542-0.068
			c0.146-0.047,0.266-0.115,0.344-0.201c0.084-0.089,0.136-0.175,0.156-0.269c0.021-0.083,0.01-0.164-0.016-0.245
			c-0.026-0.076-0.109-0.185-0.24-0.323c-0.292-0.305-0.548-0.587-0.767-0.84c-0.214-0.245-0.37-0.469-0.469-0.662
			c-0.089-0.199-0.146-0.407-0.172-0.631c-0.016-0.227,0-0.459,0.057-0.699c0.099-0.428,0.297-0.822,0.589-1.189
			c0.297-0.371,0.673-0.636,1.122-0.804c0.449-0.167,0.97-0.25,1.56-0.25c0.621,0,1.388,0.094,2.306,0.277l-0.396,2.152
			c-0.48-0.248-0.97-0.368-1.466-0.368c-0.355,0-0.616,0.039-0.793,0.123c-0.177,0.083-0.287,0.211-0.323,0.383
			c-0.016,0.052-0.021,0.11-0.01,0.162c0,0.047,0.021,0.104,0.057,0.159c0.031,0.057,0.078,0.112,0.13,0.172
			c0.052,0.06,0.193,0.196,0.412,0.415c0.214,0.211,0.381,0.389,0.501,0.527c0.193,0.225,0.339,0.433,0.422,0.626
			c0.089,0.188,0.141,0.396,0.156,0.613c0.021,0.217,0,0.446-0.052,0.686c-0.084,0.365-0.24,0.699-0.464,1.001
			c-0.224,0.308-0.516,0.563-0.871,0.764c-0.355,0.203-0.725,0.347-1.101,0.43c-0.381,0.079-0.762,0.115-1.143,0.115
			c-0.256,0-0.574-0.023-0.949-0.078C61.332,84.828,60.899,84.737,60.414,84.611z"/>
		<path fill="#A1957A" d="M66.986,84.755c0.209-0.623,0.376-1.134,0.496-1.539c0.125-0.405,0.282-0.921,0.454-1.552
			c0.172-0.631,0.36-1.325,0.563-2.089c0.198-0.762,0.423-1.646,0.668-2.655c0.579,0.008,1.038,0.018,1.387,0.018
			c0.313,0,0.767-0.01,1.361-0.018c-0.297,0.967-0.553,1.818-0.756,2.548c-0.203,0.73-0.407,1.507-0.605,2.327
			c-0.355,1.45-0.595,2.441-0.72,2.96c-0.527-0.008-0.975-0.013-1.361-0.013C68.097,84.742,67.602,84.747,66.986,84.755z
			 M69.453,75.937c0.172-0.61,0.297-1.09,0.381-1.44c0.026-0.104,0.057-0.24,0.089-0.417c0.537,0.01,0.986,0.013,1.351,0.013
			c0.501,0,0.944-0.003,1.325-0.013c-0.052,0.157-0.089,0.292-0.12,0.399l-0.261,0.952c-0.047,0.146-0.089,0.313-0.13,0.506
			c-0.438-0.01-0.861-0.013-1.268-0.013C70.403,75.924,69.949,75.927,69.453,75.937z"/>
		<path fill="#A1957A" d="M77.121,76.719c0.553,0,1.059,0.099,1.528,0.292c0.459,0.193,0.824,0.475,1.085,0.84
			c0.266,0.365,0.433,0.793,0.48,1.283c0.052,0.49,0.016,1.014-0.115,1.578c-0.13,0.545-0.323,1.067-0.584,1.562
			c-0.266,0.491-0.626,0.957-1.08,1.388c-0.464,0.433-0.986,0.756-1.586,0.975c-0.595,0.211-1.2,0.318-1.82,0.318
			c-0.563,0-1.08-0.094-1.555-0.281c-0.475-0.19-0.85-0.465-1.111-0.83c-0.266-0.365-0.428-0.798-0.485-1.306
			c-0.057-0.503-0.021-1.041,0.11-1.593c0.13-0.561,0.339-1.09,0.626-1.599c0.292-0.503,0.668-0.963,1.132-1.364
			c0.464-0.407,0.996-0.717,1.591-0.933C75.937,76.829,76.532,76.719,77.121,76.719z M76.547,78.978
			c-0.282,0-0.553,0.083-0.819,0.253c-0.261,0.17-0.485,0.415-0.673,0.741c-0.188,0.321-0.329,0.678-0.412,1.062
			c-0.13,0.563-0.115,0.996,0.057,1.293c0.183,0.3,0.454,0.449,0.819,0.449c0.282,0,0.553-0.083,0.814-0.256
			c0.261-0.172,0.491-0.425,0.678-0.759c0.193-0.337,0.334-0.697,0.422-1.077c0.073-0.318,0.094-0.605,0.063-0.861
			c-0.026-0.255-0.125-0.459-0.292-0.615C77.038,79.051,76.824,78.978,76.547,78.978z"/>
		<path fill="#A1957A" d="M80.079,84.755c0.396-1.158,0.793-2.444,1.189-3.847c0.396-1.403,0.741-2.733,1.049-3.988
			c0.532,0.008,0.991,0.018,1.377,0.018c0.448,0,0.881-0.01,1.299-0.018l-0.313,1.043c0.193-0.19,0.355-0.337,0.49-0.449
			c0.131-0.11,0.287-0.219,0.475-0.324c0.177-0.102,0.365-0.19,0.558-0.253c0.193-0.071,0.396-0.122,0.621-0.162
			c0.219-0.037,0.444-0.058,0.678-0.058c0.318,0,0.616,0.042,0.908,0.12c0.287,0.078,0.516,0.193,0.683,0.339
			c0.167,0.146,0.297,0.326,0.386,0.543c0.089,0.219,0.12,0.454,0.11,0.704c-0.016,0.25-0.052,0.508-0.115,0.772
			c-0.042,0.198-0.162,0.616-0.344,1.262l-0.761,2.78c-0.151,0.545-0.282,1.054-0.386,1.516c-0.449-0.008-0.866-0.013-1.257-0.013
			c-0.527,0-1.012,0.005-1.45,0.013c0.151-0.462,0.355-1.156,0.61-2.074c0.261-0.918,0.433-1.565,0.521-1.94
			c0.131-0.576,0.131-0.981-0.01-1.205c-0.141-0.23-0.355-0.344-0.652-0.344c-0.256,0-0.521,0.099-0.798,0.292
			c-0.271,0.193-0.516,0.478-0.73,0.848c-0.203,0.368-0.438,0.983-0.689,1.831c-0.245,0.848-0.485,1.713-0.704,2.592
			c-0.444-0.008-0.876-0.013-1.299-0.013C81.086,84.742,80.6,84.747,80.079,84.755z"/>
		<path fill="#A1957A" d="M89.353,84.755c0.396-1.158,0.798-2.444,1.189-3.847c0.396-1.403,0.746-2.733,1.048-3.988
			c0.532,0.008,0.991,0.018,1.377,0.018c0.454,0,0.887-0.01,1.299-0.018l-0.308,1.043c0.193-0.19,0.355-0.337,0.49-0.449
			c0.131-0.11,0.287-0.219,0.469-0.324c0.183-0.102,0.37-0.19,0.563-0.253c0.193-0.071,0.397-0.122,0.616-0.162
			c0.219-0.037,0.449-0.058,0.678-0.058c0.318,0,0.621,0.042,0.908,0.12c0.287,0.078,0.511,0.193,0.683,0.339
			c0.172,0.146,0.303,0.326,0.391,0.543c0.083,0.219,0.12,0.454,0.109,0.704c-0.016,0.25-0.052,0.508-0.12,0.772
			c-0.042,0.198-0.156,0.616-0.344,1.262l-0.762,2.78c-0.151,0.545-0.276,1.054-0.386,1.516c-0.444-0.008-0.866-0.013-1.257-0.013
			c-0.527,0-1.007,0.005-1.445,0.013c0.146-0.462,0.349-1.156,0.61-2.074c0.261-0.918,0.428-1.565,0.516-1.94
			c0.136-0.576,0.136-0.981-0.005-1.205c-0.146-0.23-0.36-0.344-0.652-0.344c-0.261,0-0.527,0.099-0.803,0.292
			c-0.271,0.193-0.512,0.478-0.725,0.848c-0.209,0.368-0.438,0.983-0.689,1.831c-0.25,0.848-0.485,1.713-0.704,2.592
			c-0.448-0.008-0.876-0.013-1.299-0.013C90.36,84.742,89.875,84.747,89.353,84.755z"/>
		<path fill="#A1957A" d="M100.625,79.155c0.203-0.509,0.339-0.858,0.407-1.048c0.068-0.193,0.172-0.496,0.318-0.903
			c1.351-0.324,2.488-0.485,3.412-0.485c0.521,0,0.986,0.068,1.387,0.206c0.407,0.133,0.694,0.352,0.871,0.654
			c0.172,0.303,0.193,0.735,0.063,1.299c-0.068,0.284-0.25,0.929-0.548,1.93c-0.297,1.007-0.657,2.321-1.074,3.946
			c-0.428-0.008-0.866-0.013-1.294-0.013c-0.417,0-0.866,0.005-1.335,0.013c0.187-0.561,0.527-1.724,1.012-3.484
			c-0.193,0.096-0.339,0.159-0.444,0.201c-0.104,0.042-0.287,0.102-0.548,0.185c-0.256,0.081-0.459,0.149-0.61,0.206
			c-0.146,0.057-0.282,0.128-0.402,0.216c-0.12,0.086-0.209,0.174-0.277,0.268c-0.058,0.092-0.104,0.193-0.13,0.305
			c-0.042,0.175-0.016,0.326,0.078,0.446c0.089,0.125,0.266,0.185,0.527,0.185c0.094,0,0.193-0.008,0.308-0.029
			c0.109-0.016,0.266-0.06,0.469-0.136c-0.224,0.396-0.506,0.973-0.861,1.729c-0.402,0.073-0.766,0.107-1.111,0.107
			c-0.553,0-0.986-0.086-1.315-0.266c-0.323-0.172-0.537-0.459-0.647-0.853c-0.11-0.394-0.115-0.785-0.021-1.184
			c0.052-0.237,0.146-0.475,0.277-0.707c0.125-0.23,0.287-0.454,0.496-0.675c0.208-0.217,0.433-0.407,0.678-0.561
			c0.245-0.156,0.563-0.305,0.96-0.443c0.391-0.136,0.882-0.269,1.466-0.391c0.245-0.052,0.469-0.104,0.673-0.164
			c0.209-0.06,0.36-0.112,0.454-0.154c0.089-0.044,0.167-0.094,0.234-0.154c0.063-0.06,0.115-0.122,0.151-0.185
			c0.037-0.063,0.063-0.13,0.078-0.204c0.047-0.193,0.01-0.344-0.109-0.448c-0.115-0.104-0.313-0.157-0.584-0.157
			C102.868,78.409,101.867,78.66,100.625,79.155z"/>
		<path fill="#A1957A" d="M106.921,84.755c0.203-0.623,0.376-1.134,0.496-1.539c0.13-0.405,0.276-0.921,0.453-1.552
			c0.172-0.631,0.36-1.325,0.558-2.089c0.203-0.762,0.422-1.646,0.673-2.655c0.574,0.008,1.033,0.018,1.382,0.018
			c0.313,0,0.772-0.01,1.367-0.018c-0.302,0.967-0.558,1.818-0.761,2.548c-0.198,0.73-0.402,1.507-0.6,2.327
			c-0.36,1.45-0.6,2.441-0.72,2.96c-0.527-0.008-0.98-0.013-1.361-0.013C108.032,84.742,107.537,84.747,106.921,84.755z
			 M109.389,75.937c0.172-0.61,0.297-1.09,0.381-1.44c0.021-0.104,0.052-0.24,0.089-0.417c0.537,0.01,0.98,0.013,1.351,0.013
			c0.501,0,0.939-0.003,1.32-0.013c-0.047,0.157-0.089,0.292-0.12,0.399l-0.261,0.952c-0.042,0.146-0.089,0.313-0.13,0.506
			c-0.438-0.01-0.855-0.013-1.262-0.013C110.338,75.924,109.879,75.927,109.389,75.937z"/>
		<path fill="#A1957A" d="M111.214,84.755l1.001-3.406l0.522-1.959c0.078-0.35,0.167-0.715,0.256-1.08
			c0.089-0.376,0.188-0.84,0.308-1.39c0.537,0.008,0.96,0.018,1.278,0.018c0.37,0,0.793-0.01,1.273-0.018l-0.229,0.869
			c0.229-0.227,0.407-0.391,0.547-0.503c0.136-0.109,0.287-0.211,0.449-0.3c0.162-0.089,0.324-0.156,0.491-0.198
			c0.167-0.044,0.339-0.068,0.5-0.068c0.162,0,0.334,0.026,0.522,0.078c-0.125,0.558-0.224,1.017-0.292,1.382l-0.23,1.184
			c-0.224-0.083-0.443-0.125-0.657-0.125c-0.261,0-0.501,0.042-0.719,0.133c-0.214,0.091-0.418,0.227-0.605,0.407
			c-0.193,0.183-0.36,0.409-0.516,0.681c-0.151,0.269-0.313,0.699-0.485,1.289c-0.172,0.59-0.344,1.262-0.522,2.019
			c-0.063,0.266-0.13,0.6-0.203,0.989c-0.428-0.008-0.861-0.013-1.293-0.013C112.174,84.742,111.71,84.747,111.214,84.755z"/>
		<path fill="#A1957A" d="M124.218,82.439c-0.13,0.308-0.412,1.048-0.85,2.23c-0.543,0.115-0.996,0.193-1.351,0.23
			c-0.36,0.039-0.725,0.057-1.08,0.057c-0.527,0-1.007-0.042-1.434-0.125c-0.422-0.084-0.772-0.235-1.043-0.448
			c-0.271-0.214-0.48-0.48-0.621-0.801c-0.146-0.321-0.224-0.702-0.235-1.14c-0.01-0.438,0.037-0.892,0.152-1.356
			c0.146-0.657,0.412-1.293,0.782-1.925c0.37-0.626,0.777-1.117,1.221-1.466c0.433-0.352,0.907-0.605,1.408-0.751
			c0.501-0.148,0.996-0.224,1.487-0.224c0.506,0,0.97,0.068,1.398,0.206c0.433,0.133,0.767,0.368,1.007,0.707
			c0.24,0.339,0.375,0.722,0.412,1.148c0.042,0.423,0,0.882-0.115,1.372c-0.068,0.292-0.172,0.615-0.313,0.975l-4.674,0.008
			c-0.021,0.08-0.042,0.154-0.052,0.221c-0.136,0.548-0.052,0.955,0.23,1.21c0.276,0.266,0.667,0.394,1.158,0.394
			c0.298,0,0.642-0.042,1.033-0.117C123.128,82.762,123.623,82.63,124.218,82.439z M120.697,79.959h2.201
			c0.026-0.086,0.042-0.161,0.057-0.219c0.063-0.268,0.073-0.496,0.037-0.688c-0.037-0.188-0.125-0.324-0.261-0.412
			c-0.13-0.089-0.297-0.13-0.485-0.13c-0.136,0-0.266,0.026-0.402,0.073c-0.136,0.049-0.266,0.12-0.386,0.216
			c-0.125,0.091-0.234,0.203-0.324,0.326c-0.094,0.123-0.177,0.24-0.234,0.355C120.843,79.596,120.775,79.755,120.697,79.959z"/>
		<path fill="#A1957A" d="M128.501,84.755l0.522-1.547l1.664-5.383l1.027-3.547c0.819,0.011,1.466,0.016,1.93,0.016
			c0.386,0,0.98-0.005,1.784-0.016c-0.042,0.443-0.073,0.775-0.089,1.001c-0.016,0.23-0.016,0.676-0.016,1.338
			c0.011,0.66-0.005,1.234-0.021,1.719c-0.016,0.483-0.068,1.309-0.146,2.483c0.381-0.803,0.72-1.492,1.017-2.073
			c0.292-0.576,0.647-1.236,1.059-1.974c0.412-0.735,0.678-1.218,0.793-1.445c0.12-0.229,0.287-0.574,0.506-1.048
			c0.667,0.011,1.314,0.016,1.961,0.016c0.433,0,1.038-0.005,1.816-0.016c-0.49,1.726-0.887,3.208-1.205,4.444
			c-0.621,2.426-1.038,4.095-1.252,5.008c-0.042,0.188-0.115,0.532-0.224,1.025c-0.584-0.008-0.991-0.013-1.231-0.013
			c-0.344,0-0.762,0.005-1.257,0.013c0.141-0.457,0.438-1.557,0.897-3.286c0.459-1.735,0.741-2.84,0.85-3.32
			c0.052-0.209,0.12-0.503,0.193-0.874l-1.596,3.122l-2.274,4.358c-0.574-0.008-0.97-0.013-1.189-0.013
			c-0.276,0-0.699,0.005-1.267,0.013l0.157-4.217l0.042-2.248c0.005-0.089,0.011-0.199,0.021-0.326
			c0.005-0.128,0.021-0.352,0.047-0.676l-0.663,2.128l-1.236,4.361l-0.25,0.978c-0.61-0.008-0.996-0.013-1.168-0.013
			C129.471,84.742,129.069,84.747,128.501,84.755z"/>
		<path fill="#A1957A" d="M146.981,76.719c0.548,0,1.054,0.099,1.518,0.292c0.464,0.193,0.829,0.475,1.09,0.84
			c0.266,0.365,0.428,0.793,0.48,1.283c0.052,0.49,0.016,1.014-0.115,1.578c-0.131,0.545-0.318,1.067-0.584,1.562
			c-0.266,0.491-0.631,0.957-1.08,1.388c-0.459,0.433-0.986,0.756-1.591,0.975c-0.589,0.211-1.199,0.318-1.815,0.318
			c-0.558,0-1.08-0.094-1.555-0.281c-0.48-0.19-0.845-0.465-1.111-0.83c-0.266-0.365-0.428-0.798-0.485-1.306
			c-0.057-0.503-0.021-1.041,0.109-1.593c0.125-0.561,0.339-1.09,0.626-1.599c0.292-0.503,0.668-0.963,1.132-1.364
			c0.464-0.407,0.996-0.717,1.591-0.933C145.792,76.829,146.387,76.719,146.981,76.719z M146.407,78.978
			c-0.287,0-0.558,0.083-0.819,0.253c-0.261,0.17-0.49,0.415-0.678,0.741c-0.188,0.321-0.329,0.678-0.412,1.062
			c-0.136,0.563-0.115,0.996,0.063,1.293c0.172,0.3,0.449,0.449,0.813,0.449c0.277,0,0.553-0.083,0.814-0.256
			c0.261-0.172,0.485-0.425,0.678-0.759c0.193-0.337,0.329-0.697,0.422-1.077c0.073-0.318,0.094-0.605,0.068-0.861
			c-0.031-0.255-0.13-0.459-0.297-0.615C146.893,79.051,146.674,78.978,146.407,78.978z"/>
		<path fill="#A1957A" d="M155.484,82.499c-0.183,0.433-0.35,0.851-0.501,1.262l-0.365,0.936c-0.464,0.112-0.829,0.18-1.08,0.211
			c-0.25,0.031-0.496,0.047-0.725,0.047c-0.381,0-0.704-0.036-0.98-0.109c-0.277-0.073-0.49-0.209-0.641-0.407
			c-0.146-0.198-0.23-0.422-0.24-0.678c-0.01-0.255,0.016-0.53,0.084-0.814c0.01-0.052,0.036-0.143,0.068-0.271
			c0.036-0.133,0.12-0.422,0.255-0.873l0.762-2.655h-1.043c0.104-0.355,0.235-0.822,0.386-1.398l0.182-0.714h1.106
			c0.084-0.235,0.235-0.749,0.459-1.542l1.2-0.271c0.224-0.044,0.699-0.162,1.424-0.349c-0.188,0.667-0.381,1.39-0.574,2.162h1.523
			c-0.287,1.064-0.464,1.771-0.548,2.112h-1.533l-0.522,1.917c-0.078,0.29-0.125,0.469-0.146,0.553
			c-0.057,0.245-0.083,0.449-0.073,0.613c0.005,0.164,0.063,0.284,0.167,0.355c0.099,0.07,0.219,0.107,0.36,0.107
			c0.109,0,0.224-0.011,0.339-0.026C154.952,82.648,155.166,82.593,155.484,82.499z"/>
		<path fill="#A1957A" d="M161.644,76.719c0.547,0,1.059,0.099,1.523,0.292c0.464,0.193,0.829,0.475,1.095,0.84
			c0.266,0.365,0.422,0.793,0.475,1.283c0.058,0.49,0.016,1.014-0.115,1.578c-0.125,0.545-0.323,1.067-0.59,1.562
			c-0.261,0.491-0.62,0.957-1.079,1.388c-0.454,0.433-0.981,0.756-1.581,0.975c-0.6,0.211-1.205,0.318-1.815,0.318
			c-0.569,0-1.085-0.094-1.56-0.281c-0.475-0.19-0.845-0.465-1.116-0.83c-0.261-0.365-0.418-0.798-0.48-1.306
			c-0.058-0.503-0.021-1.041,0.109-1.593c0.13-0.561,0.339-1.09,0.626-1.599c0.292-0.503,0.668-0.963,1.132-1.364
			c0.464-0.407,0.996-0.717,1.596-0.933C160.465,76.829,161.055,76.719,161.644,76.719z M161.076,78.978
			c-0.287,0-0.558,0.083-0.819,0.253c-0.261,0.17-0.485,0.415-0.678,0.741c-0.188,0.321-0.324,0.678-0.417,1.062
			c-0.13,0.563-0.104,0.996,0.068,1.293c0.172,0.3,0.443,0.449,0.814,0.449c0.281,0,0.553-0.083,0.814-0.256
			c0.261-0.172,0.49-0.425,0.683-0.759c0.188-0.337,0.334-0.697,0.417-1.077c0.073-0.318,0.099-0.605,0.068-0.861
			c-0.032-0.255-0.125-0.459-0.292-0.615C161.56,79.051,161.347,78.978,161.076,78.978z"/>
		<path fill="#A1957A" d="M164.649,84.611c0.036-0.224,0.073-0.462,0.109-0.709c0.042-0.25,0.089-0.59,0.156-1.027l0.073-0.553
			c0.386,0.198,0.72,0.342,1.012,0.435c0.287,0.094,0.563,0.144,0.819,0.144c0.219,0,0.402-0.026,0.548-0.068
			c0.146-0.047,0.261-0.115,0.344-0.201c0.078-0.089,0.13-0.175,0.151-0.269c0.021-0.083,0.021-0.164-0.01-0.245
			c-0.031-0.076-0.105-0.185-0.24-0.323c-0.292-0.305-0.548-0.587-0.761-0.84c-0.224-0.245-0.375-0.469-0.475-0.662
			c-0.094-0.199-0.146-0.407-0.172-0.631c-0.021-0.227-0.005-0.459,0.057-0.699c0.094-0.428,0.292-0.822,0.59-1.189
			c0.292-0.371,0.668-0.636,1.121-0.804c0.449-0.167,0.97-0.25,1.56-0.25c0.616,0,1.382,0.094,2.3,0.277l-0.391,2.152
			c-0.48-0.248-0.97-0.368-1.471-0.368c-0.349,0-0.61,0.039-0.793,0.123c-0.177,0.083-0.282,0.211-0.324,0.383
			c-0.016,0.052-0.016,0.11-0.01,0.162c0.005,0.047,0.031,0.104,0.063,0.159c0.026,0.057,0.078,0.112,0.136,0.172
			c0.052,0.06,0.188,0.196,0.402,0.415c0.219,0.211,0.386,0.389,0.506,0.527c0.199,0.225,0.334,0.433,0.423,0.626
			c0.083,0.188,0.136,0.396,0.157,0.613c0.016,0.217,0,0.446-0.058,0.686c-0.089,0.365-0.24,0.699-0.464,1.001
			c-0.224,0.308-0.511,0.563-0.866,0.764c-0.36,0.203-0.73,0.347-1.105,0.43c-0.381,0.079-0.757,0.115-1.143,0.115
			c-0.255,0-0.574-0.023-0.949-0.078C165.567,84.828,165.133,84.737,164.649,84.611z"/>
	</g>
</g>
</svg>
